PathFileType	4	(X/Y/Z)	17_2_47_p0_0-650.trc
DataRate	CameraRate	NumFrames	NumMarkers	Units	OrigDataRate	OrigDataStartFrame	OrigNumFrames
59.0	59.0	5	27	m	59.0	81	651
Frame#	Time	RHip			RKnee			RAnkle			RBigToe			RSmallToe			RHeel			LHip			LKnee			LAnkle			LBigToe			LSmallToe			LHeel			Neck			Head			Nose			RShoulder			RElbow			RWrist			RThumb			RIndex			RPinky			LShoulder			LElbow			LWrist			LThumb			LIndex			LPinky			
		X1	Y1	Z1	X2	Y2	Z2	X3	Y3	Z3	X4	Y4	Z4	X5	Y5	Z5	X6	Y6	Z6	X7	Y7	Z7	X8	Y8	Z8	X9	Y9	Z9	X10	Y10	Z10	X11	Y11	Z11	X12	Y12	Z12	X13	Y13	Z13	X14	Y14	Z14	X15	Y15	Z15	X16	Y16	Z16	X17	Y17	Z17	X18	Y18	Z18	X19	Y19	Z19	X20	Y20	Z20	X21	Y21	Z21	X22	Y22	Z22	X23	Y23	Z23	X24	Y24	Z24	X25	Y25	Z25	X26	Y26	Z26	X27	Y27	Z27	
81	1.3728813559322033	0.26529537189283164	0.43607449504342694	0.8888790809446888	0.24685408392390948	0.5463167818710978	1.318752554905301	0.22167136437338342	0.7105731275545277	1.7058789707835424	0.2466426681940207	0.5323600590957429	1.7323250793406066	0.30286620710635426	0.555935662673378	1.7323507343702345	0.20147054722732027	0.7836505498309221	1.7666659222338221	0.06085104684773676	0.45555146438902006	0.9012906758047647	0.049264588510874216	0.5894137516403255	1.3227575244950163	0.04544529683220366	0.6677610848943666	1.7259633560841723	0.07610109423454345	0.4420086867138423	1.7065462123130641	0.003531769328606814	0.5107348637781379	1.7306067534174876	0.05886934132242704	0.7302051801276876	1.773182892316538	0.17425514024480993	0.4436066794563138	0.30824727982849387	0.18240996128294973	0.3988727628548593	0.06609314898139605	0.187090993757336	0.335661041001767	0.2037322425576319	0.29921657302272936	0.458309109224123	0.4051722585430261	0.37065175242653303	0.39501466645902117	0.6466634237013179	0.32825186803218814	0.2836913515301683	0.8646753176773583	0.2257072659061948	0.16422350704890745	0.9217726180960909	0.26702096149541266	0.14169524895935598	0.9507829621231222	0.3012670301312639	0.18936362729382442	0.9801456488909006	0.010569103309758257	0.43143326263893056	0.40178570538758657	-0.024412966178245656	0.41666555178465914	0.670311203494509	0.04890910389601779	0.3024605881496169	0.8698837929366402	0.12202867083367547	0.23748829634580437	0.930237560795826	0.11175038512716615	0.1911706032102465	0.9385566402669121	0.09433404494502398	0.21122423654638225	0.9590444577552057
82	1.3898305084745763	0.26296639692879525	0.44432468227327326	0.8915972864110941	0.24685878012687354	0.546154489921483	1.3190747887782075	0.22165445409819906	0.710346790894744	1.7056332556945712	0.24672617127232302	0.532242067583299	1.7323160969801095	0.30297326772692024	0.5559320710352045	1.7323509401536354	0.201470292028808	0.7835034476703102	1.7664996086662788	0.06015889963116169	0.45499929201656897	0.9050948479242841	0.04902652249553431	0.5902025373765678	1.3188752442694824	0.0455121511668536	0.6676892870081608	1.725935642365728	0.07712352587459263	0.4547526459550238	1.712689302753102	0.0035192814378078776	0.5107310157351991	1.730702940756215	0.058208941375515404	0.7311578042528285	1.7691734049405305	0.17400813402867377	0.443824995803794	0.30488235398644414	0.18242070510329217	0.39876976324952446	0.06602786276673223	0.18713102754737923	0.3360141543541616	0.20375633238410348	0.29959676638880806	0.45966031064020396	0.4087193105754238	0.37424212296258835	0.39755709142711354	0.6432338642726042	0.333854351121281	0.2734247651451407	0.8651284102760214	0.2353635021024335	0.19027297602335144	0.924686882653271	0.27636522044381245	0.16333251600189339	0.9623662216932748	0.3156370308060688	0.20118341985455648	0.98220251538542	0.010620416489752718	0.4315634168250294	0.4017614629406863	-0.024697292608067856	0.4149334666006499	0.662713511711955	0.036788806522100384	0.26248501875829583	0.8622249773273212	0.11492891625317161	0.19368887458288567	0.9202611919739034	0.10788087075876682	0.16888523608774741	0.9369458404801567	0.05620823679964008	0.21606103406203464	0.9656642970416222
83	1.4067796610169492	0.2618031813197802	0.43327213396065095	0.8970076047049591	0.24356098558300313	0.5331563838133133	1.319301668397642	0.22161993732746427	0.7104614626474149	1.7056728591377006	0.2466380109168745	0.5321164772449233	1.732199013292641	0.30286472687239685	0.5559074097375443	1.732422117004006	0.20149308588771572	0.7836599847708547	1.766696478932536	0.06639941707407222	0.4414326018638812	0.9018401044628642	0.04765805576030989	0.5932346951911287	1.3335481101518087	0.04555909937617304	0.6679641734226898	1.7261238435441866	0.07034991814138171	0.46624151733667896	1.714995495369419	0.0035194188981320105	0.5109108833603483	1.7306458346774163	0.05830822413639411	0.7314302765421616	1.7692090167194614	0.17400800120729104	0.4438743331749119	0.30482827889585495	0.18250575450740647	0.3986800958561509	0.06587736519634499	0.18724941730719824	0.335589469330214	0.20372671307289403	0.2992449113330786	0.45819726128399635	0.4048588018197694	0.37462154063752773	0.3981840233009239	0.6431647202576741	0.3374146041623675	0.28402669328195596	0.8748254932088808	0.2622571157858837	0.18319045934906011	0.9240369141387251	0.2901931741678328	0.1747370720220042	0.9718334255154527	0.33979931373629346	0.18304372477397707	0.9791560614656355	0.01076820067592816	0.4315980711461188	0.4016769917027318	-0.024459550523378053	0.41447210736803053	0.6624796140820095	0.025899566540788923	0.26145730739959216	0.8668307646339953	0.10415340229860277	0.1931522865815125	0.9314395832942188	0.09442103480790374	0.176519078380976	0.944731586228812	0.03506556360465017	0.2354886446730168	0.9757209019099181
84	1.423728813559322	0.26583092300888095	0.43421843892550005	0.8932990296564156	0.23708746046599433	0.5460642212508294	1.312056735164683	0.22795084230978468	0.6933778606946421	1.6969197970037373	0.2467423324516669	0.5319333098637371	1.7325625891902812	0.3029451453014269	0.5552296022331193	1.73224200225099	0.20079455831814966	0.7806407029665687	1.7608561074754818	0.06677534704227084	0.44123543547149596	0.9015877334020457	0.05673495156349262	0.577209393142905	1.3238950121824025	0.044942426877830795	0.665174846826282	1.7197923118184677	0.07675101109566412	0.4525533835659418	1.7073869295802604	0.0048482143627752924	0.5246418197209906	1.7370592483570626	0.05819770754826774	0.7273723024252801	1.767181784977126	0.17412479345713514	0.4438562476099485	0.301695330512273	0.18238868861995547	0.39874830920033544	0.0659376675108498	0.1873408815879748	0.3359037449377236	0.20070613106830296	0.299260815128206	0.4581548907116082	0.404752017627813	0.37442358893739147	0.3986070518512416	0.6394563707719845	0.3416790123584552	0.2859554171561257	0.875358224501493	0.2750813440389309	0.19641081530181298	0.9332293962799874	0.295822134093363	0.18810771154806494	0.9791713806550992	0.356008150183634	0.1961120688346291	0.9836690859224048	0.01097247571368977	0.4314948608375648	0.3983905539141216	-0.024223103922189623	0.41382216045918085	0.6622957400698021	0.01921599297229099	0.2726644065932975	0.8700733682656148	0.09769236484265979	0.20292104035237898	0.9352129678898562	0.07682688621294181	0.1835560471579832	0.9516956049667518	0.021458283412470386	0.2455116729314111	0.9816560626496406
85	1.4406779661016949	0.2729657390512067	0.4319412873312658	0.8849364618119397	0.23779437836809716	0.5453006018889179	1.315720474745271	0.22162339866680902	0.710281660959028	1.7054781167027724	0.24673247726535574	0.5321361684794359	1.7324974819543353	0.30288975898299525	0.5557907579072786	1.7325159574305984	0.20064244753909213	0.7809383680654175	1.7613048058490615	0.07454737954676685	0.44061513867872004	0.9008189449740289	0.06217612226689977	0.5604414067443776	1.3163636615948135	0.04483906923073371	0.665190799630906	1.719701300284873	0.07670173571526441	0.45245552945226303	1.707365921771333	0.004829136822344781	0.524341079556801	1.7374236816170505	0.05866820305978991	0.730251874510979	1.7731639978499285	0.1741299195122487	0.4438970718009854	0.3015874624770218	0.18233351677437293	0.39897277271210296	0.06288690033770296	0.18731090388887237	0.33578731202770495	0.20067747818344941	0.29931102537709947	0.4581934495546147	0.40480032334212057	0.3793103914162198	0.38456396450416763	0.6336436669222237	0.3566318968634954	0.2880065029411206	0.8751981382498828	0.28770071984818124	0.20047801452725933	0.9418779435129636	0.3078125854900392	0.1889423681975385	0.9822108435593065	0.37872937386233646	0.21606409194409337	0.9878979981660173	0.011877630201467992	0.44398417800972073	0.3990440419473374	-0.024349547902664994	0.4138488199139021	0.662330341917973	0.005255811384889557	0.2952108835401387	0.8758006935070347	0.07615971718422129	0.21017299892912075	0.9425739147371248	0.04304249573741581	0.21191663394033378	0.9544877649364382	0.010947651397927475	0.2557373909750322	0.9837803122813911
